<?xml version="1.0" encoding="utf-8"?>
<!-- Generator: Adobe Illustrator 15.1.0, SVG Export Plug-In . SVG Version: 6.00 Build 0)  -->
<!DOCTYPE svg PUBLIC "-//W3C//DTD SVG 1.1//EN" "http://www.w3.org/Graphics/SVG/1.1/DTD/svg11.dtd">
<svg version="1.1" id="Layer_1" xmlns="http://www.w3.org/2000/svg" xmlns:xlink="http://www.w3.org/1999/xlink" x="0px" y="0px"
	 width="600px" height="600px" viewBox="0 0 600 600" enable-background="new 0 0 600 600" xml:space="preserve">
<g>
	<g>
		<path fill="#FFE40F" d="M289.309,100.903c-103.22,0-186.888,83.667-186.888,186.889c0,46.104,16.756,88.222,44.437,120.82
			l-36.503,80.482c-0.954,1.712-0.824,3.793,0.304,5.396c0.823,1.149,2.016,1.862,3.316,2.08c1.104,0.194,2.254,0.044,3.338-0.541
			l91.839-39.602c24.32,11.596,51.416,18.273,80.157,18.273c103.236,0,186.927-83.689,186.927-186.911
			C476.236,184.57,392.545,100.903,289.309,100.903z"/>
		<path fill="#472A2B" d="M114.883,501.673c-0.59,0-1.188-0.054-1.776-0.157c-2.616-0.438-4.948-1.896-6.529-4.101
			c-2.235-3.183-2.494-7.188-0.723-10.551l35.128-77.455c-28.127-34.27-43.582-77.328-43.582-121.617
			c0-105.817,86.089-191.908,191.907-191.908c105.848,0,191.946,86.091,191.946,191.908c0,105.83-86.1,191.932-191.946,191.932
			c-27.757,0-54.743-5.984-80.245-17.79l-89.593,38.633C118.03,501.3,116.487,501.673,114.883,501.673z M289.309,105.923
			c-100.283,0-181.868,81.586-181.868,181.869c0,42.977,15.357,84.729,43.242,117.571l2.06,2.426l-38.002,83.747l0.02,0.004
			l0.127,0.094l0.438-0.212l93.934-40.505l2.055,0.98c24.751,11.802,50.994,17.786,77.996,17.786
			c100.312,0,181.907-81.597,181.907-181.893C471.216,187.509,389.619,105.923,289.309,105.923z"/>
	</g>
</g>
<g>
	<rect x="138.63" y="471.514" fill="#472A2B" width="10.441" height="10.44"/>
	<rect x="117.754" y="461.084" fill="#472A2B" width="15.659" height="10.44"/>
	<rect x="128.191" y="461.077" fill="#472A2B" width="10.44" height="10.441"/>
	<rect x="138.628" y="461.077" fill="#472A2B" width="10.439" height="10.441"/>
	<rect x="138.628" y="450.636" fill="#472A2B" width="10.439" height="10.439"/>
</g>
<rect x="212.546" y="147.77" fill="#472A2B" width="10.44" height="10.44"/>
<rect x="172.048" y="137.372" fill="#472A2B" width="40.521" height="10.441"/>
<rect x="144.889" y="398.459" fill="#472A2B" width="15.479" height="10.44"/>
<polygon fill="#472A2B" points="134.287,241.868 134.287,231.427 149.948,231.427 149.948,220.984 129.065,220.984 129.065,220.984 
	123.848,220.984 123.848,220.984 113.408,220.984 113.408,241.868 123.848,241.868 "/>
<polygon fill="#472A2B" points="129.046,257.464 129.046,267.906 129.046,273.127 149.928,273.127 149.928,252.244 129.046,252.244 
	"/>
<polygon fill="#472A2B" points="129.063,335.928 139.505,335.928 139.501,346.312 108.184,346.369 108.184,335.928 118.624,335.928 
	"/>
<polygon fill="#472A2B" points="149.944,325.355 149.944,335.798 160.385,335.798 160.385,314.914 149.944,314.914 149.944,294.033 
	139.505,294.033 139.505,314.914 139.505,325.419 "/>
<polyline fill="#472A2B" points="106.093,294.033 106.093,273.151 129.063,273.151 129.063,294.033 "/>
<line fill="none" x1="108.184" y1="325.355" x2="108.184" y2="314.914"/>
<path fill="#472A2B" d="M129.063,341.016"/>
<polygon fill="#472A2B" points="139.528,367.191 118.644,367.191 118.644,356.75 139.528,356.75 139.528,346.308 149.968,346.308 
	149.968,388.071 139.528,388.071 "/>
<g>
	<rect x="274.391" y="450.594" fill="#472A2B" width="10.343" height="20.881"/>
	<polygon fill="#472A2B" points="284.825,440.185 295.275,440.185 295.275,429.744 274.383,429.744 274.383,440.185 
		263.942,440.185 263.942,419.302 253.501,419.302 253.501,440.185 232.62,440.185 232.62,429.744 222.178,429.744 222.178,450.625 
		211.738,450.625 211.738,440.185 211.738,429.744 136.948,429.744 136.948,440.185 201.297,440.185 201.297,461.154 
		211.738,461.154 211.738,461.065 222.178,461.065 222.178,450.628 232.62,450.628 243.061,450.628 243.061,461.065 
		263.942,461.065 263.942,450.628 274.383,450.628 274.383,461.065 274.383,471.508 284.825,471.508 284.825,461.065 
		284.825,461.065 284.825,450.625 284.825,450.625 	"/>
</g>
<polygon fill="#472A2B" points="159.536,440.216 169.977,440.216 169.977,467.716 190.86,467.716 190.86,429.773 180.418,429.773 
	180.418,419.335 169.977,419.335 169.977,429.773 169.977,429.775 159.536,429.775 159.536,419.335 149.096,419.335 
	149.096,429.775 149.096,440.216 149.096,450.656 159.536,450.656 "/>
<rect x="284.815" y="419.326" fill="#472A2B" width="10.451" height="10.441"/>
<polygon fill="#472A2B" points="337.072,440.189 316.125,440.189 316.125,429.748 295.262,429.748 295.262,450.632 316.191,450.632 
	316.191,461.069 326.631,461.069 326.631,450.632 326.631,450.63 337.072,450.63 337.072,466.181 347.513,466.181 347.513,450.63 
	347.513,440.189 347.513,429.748 337.072,429.748 "/>
<polygon fill="#472A2B" points="378.785,419.306 368.345,419.306 368.345,440.189 357.905,440.189 357.905,450.632 389.044,450.632 
	389.044,440.189 378.785,440.189 "/>
<polygon fill="#472A2B" points="441.354,346.236 430.915,346.236 430.915,367.118 451.795,367.118 451.795,356.677 462.237,356.677 
	462.237,335.798 441.354,335.798 "/>
<polygon fill="#472A2B" points="441.558,304.412 441.558,293.97 420.676,293.97 420.676,314.853 431.117,314.853 431.117,325.296 
	452,325.296 452,314.853 472.88,314.853 472.88,304.412 452,304.412 "/>
<rect x="420.677" y="325.26" fill="#472A2B" width="10.441" height="10.44"/>
<polygon fill="#472A2B" points="431.117,407.982 420.676,407.982 420.676,418.425 428.376,416.686 "/>
<rect x="430.913" y="367.018" fill="#472A2B" width="10.44" height="10.441"/>
<rect x="430.914" y="377.225" fill="#472A2B" width="10.44" height="10.44"/>
<path fill="#472A2B" d="M462.439,262.271v-9.591v-11.292h-10.439v-10.438h15.661v-10.441h-26.103v-20.882h-10.44v31.323h10.44
	v10.438h-20.883v11.292h10.441v30.474h10.44v-10.441h31.321v-10.44L462.439,262.271L462.439,262.271z M441.558,262.271v-9.591h10.44
	v9.591H441.558z"/>
<polygon fill="#472A2B" points="229.154,137.329 243.883,137.329 243.883,126.962 229.154,126.962 229.154,108.823 212.546,121.78 
	212.546,137.327 229.154,137.327 "/>
<polygon fill="#472A2B" points="316.94,137.36 337.823,137.36 337.823,127.162 337.823,126.919 337.823,116.48 327.381,116.48 
	327.381,126.919 316.94,126.919 316.94,116.48 296.053,116.48 296.053,137.36 306.499,137.36 "/>
<rect x="285.573" y="106.05" fill="#472A2B" width="10.452" height="10.441"/>
<rect x="317.01" y="106.088" fill="#472A2B" width="10.44" height="10.441"/>
<rect x="390.111" y="147.864" fill="#472A2B" width="10.441" height="10.441"/>
<rect x="327.398" y="137.385" fill="#472A2B" width="10.44" height="10.44"/>
<g>
	<rect x="379.65" y="126.947" fill="#472A2B" width="10.441" height="20.88"/>
	<rect x="348.336" y="137.385" fill="#472A2B" width="10.439" height="10.44"/>
	<rect x="358.777" y="126.941" fill="#472A2B" width="10.441" height="10.44"/>
	<rect x="369.207" y="137.385" fill="#472A2B" width="10.438" height="10.44"/>
</g>
<g>
	<rect x="275.158" y="126.947" fill="#472A2B" width="10.44" height="20.88"/>
	<rect x="243.844" y="137.385" fill="#472A2B" width="10.439" height="10.44"/>
	<rect x="254.283" y="126.941" fill="#472A2B" width="10.44" height="10.44"/>
	<rect x="264.715" y="137.385" fill="#472A2B" width="10.438" height="10.44"/>
</g>
<rect x="420.676" y="189.193" fill="#472A2B" width="10.441" height="10.438"/>
<rect x="149.94" y="273.099" fill="#472A2B" width="10.441" height="10.44"/>
<rect x="118.567" y="314.93" fill="#472A2B" width="10.441" height="10.439"/>
<rect x="108.194" y="314.93" fill="#472A2B" width="10.441" height="10.439"/>
<rect x="149.944" y="231.415" fill="#472A2B" width="10.441" height="10.441"/>
<g>
	<rect x="139.507" y="189.627" fill="#472A2B" width="10.44" height="10.441"/>
	<rect x="139.507" y="179.229" fill="#472A2B" width="10.44" height="10.44"/>
	<rect x="139.507" y="168.781" fill="#472A2B" width="10.44" height="10.441"/>
</g>
<rect x="139.507" y="210.537" fill="#472A2B" width="10.44" height="10.441"/>
<g id="Layer_2">
</g>
<rect x="159.0" y="159.0" fill="#472A2B" width="10.4" height="10.4" stroke="#472A2B" stroke-width="1"/>
<rect x="169.4" y="159.0" fill="#472A2B" width="10.4" height="10.4" stroke="#472A2B" stroke-width="1"/>
<rect x="179.8" y="159.0" fill="#472A2B" width="10.4" height="10.4" stroke="#472A2B" stroke-width="1"/>
<rect x="190.2" y="159.0" fill="#472A2B" width="10.4" height="10.4" stroke="#472A2B" stroke-width="1"/>
<rect x="200.6" y="159.0" fill="#472A2B" width="10.4" height="10.4" stroke="#472A2B" stroke-width="1"/>
<rect x="211.0" y="159.0" fill="#472A2B" width="10.4" height="10.4" stroke="#472A2B" stroke-width="1"/>
<rect x="221.4" y="159.0" fill="#472A2B" width="10.4" height="10.4" stroke="#472A2B" stroke-width="1"/>
<rect x="242.2" y="159.0" fill="#472A2B" width="10.4" height="10.4" stroke="#472A2B" stroke-width="1"/>
<rect x="273.4" y="159.0" fill="#472A2B" width="10.4" height="10.4" stroke="#472A2B" stroke-width="1"/>
<rect x="283.8" y="159.0" fill="#472A2B" width="10.4" height="10.4" stroke="#472A2B" stroke-width="1"/>
<rect x="304.6" y="159.0" fill="#472A2B" width="10.4" height="10.4" stroke="#472A2B" stroke-width="1"/>
<rect x="346.20000000000005" y="159.0" fill="#472A2B" width="10.4" height="10.4" stroke="#472A2B" stroke-width="1"/>
<rect x="356.6" y="159.0" fill="#472A2B" width="10.4" height="10.4" stroke="#472A2B" stroke-width="1"/>
<rect x="367.0" y="159.0" fill="#472A2B" width="10.4" height="10.4" stroke="#472A2B" stroke-width="1"/>
<rect x="377.4" y="159.0" fill="#472A2B" width="10.4" height="10.4" stroke="#472A2B" stroke-width="1"/>
<rect x="387.8" y="159.0" fill="#472A2B" width="10.4" height="10.4" stroke="#472A2B" stroke-width="1"/>
<rect x="398.20000000000005" y="159.0" fill="#472A2B" width="10.4" height="10.4" stroke="#472A2B" stroke-width="1"/>
<rect x="408.6" y="159.0" fill="#472A2B" width="10.4" height="10.4" stroke="#472A2B" stroke-width="1"/>
<rect x="159.0" y="169.4" fill="#472A2B" width="10.4" height="10.4" stroke="#472A2B" stroke-width="1"/>
<rect x="221.4" y="169.4" fill="#472A2B" width="10.4" height="10.4" stroke="#472A2B" stroke-width="1"/>
<rect x="252.60000000000002" y="169.4" fill="#472A2B" width="10.4" height="10.4" stroke="#472A2B" stroke-width="1"/>
<rect x="263.0" y="169.4" fill="#472A2B" width="10.4" height="10.4" stroke="#472A2B" stroke-width="1"/>
<rect x="294.20000000000005" y="169.4" fill="#472A2B" width="10.4" height="10.4" stroke="#472A2B" stroke-width="1"/>
<rect x="325.4" y="169.4" fill="#472A2B" width="10.4" height="10.4" stroke="#472A2B" stroke-width="1"/>
<rect x="346.20000000000005" y="169.4" fill="#472A2B" width="10.4" height="10.4" stroke="#472A2B" stroke-width="1"/>
<rect x="408.6" y="169.4" fill="#472A2B" width="10.4" height="10.4" stroke="#472A2B" stroke-width="1"/>
<rect x="159.0" y="179.8" fill="#472A2B" width="10.4" height="10.4" stroke="#472A2B" stroke-width="1"/>
<rect x="179.8" y="179.8" fill="#472A2B" width="10.4" height="10.4" stroke="#472A2B" stroke-width="1"/>
<rect x="190.2" y="179.8" fill="#472A2B" width="10.4" height="10.4" stroke="#472A2B" stroke-width="1"/>
<rect x="200.6" y="179.8" fill="#472A2B" width="10.4" height="10.4" stroke="#472A2B" stroke-width="1"/>
<rect x="221.4" y="179.8" fill="#472A2B" width="10.4" height="10.4" stroke="#472A2B" stroke-width="1"/>
<rect x="263.0" y="179.8" fill="#472A2B" width="10.4" height="10.4" stroke="#472A2B" stroke-width="1"/>
<rect x="283.8" y="179.8" fill="#472A2B" width="10.4" height="10.4" stroke="#472A2B" stroke-width="1"/>
<rect x="294.20000000000005" y="179.8" fill="#472A2B" width="10.4" height="10.4" stroke="#472A2B" stroke-width="1"/>
<rect x="304.6" y="179.8" fill="#472A2B" width="10.4" height="10.4" stroke="#472A2B" stroke-width="1"/>
<rect x="346.20000000000005" y="179.8" fill="#472A2B" width="10.4" height="10.4" stroke="#472A2B" stroke-width="1"/>
<rect x="367.0" y="179.8" fill="#472A2B" width="10.4" height="10.4" stroke="#472A2B" stroke-width="1"/>
<rect x="377.4" y="179.8" fill="#472A2B" width="10.4" height="10.4" stroke="#472A2B" stroke-width="1"/>
<rect x="387.8" y="179.8" fill="#472A2B" width="10.4" height="10.4" stroke="#472A2B" stroke-width="1"/>
<rect x="408.6" y="179.8" fill="#472A2B" width="10.4" height="10.4" stroke="#472A2B" stroke-width="1"/>
<rect x="159.0" y="190.2" fill="#472A2B" width="10.4" height="10.4" stroke="#472A2B" stroke-width="1"/>
<rect x="179.8" y="190.2" fill="#472A2B" width="10.4" height="10.4" stroke="#472A2B" stroke-width="1"/>
<rect x="190.2" y="190.2" fill="#472A2B" width="10.4" height="10.4" stroke="#472A2B" stroke-width="1"/>
<rect x="200.6" y="190.2" fill="#472A2B" width="10.4" height="10.4" stroke="#472A2B" stroke-width="1"/>
<rect x="221.4" y="190.2" fill="#472A2B" width="10.4" height="10.4" stroke="#472A2B" stroke-width="1"/>
<rect x="283.8" y="190.2" fill="#472A2B" width="10.4" height="10.4" stroke="#472A2B" stroke-width="1"/>
<rect x="294.20000000000005" y="190.2" fill="#472A2B" width="10.4" height="10.4" stroke="#472A2B" stroke-width="1"/>
<rect x="304.6" y="190.2" fill="#472A2B" width="10.4" height="10.4" stroke="#472A2B" stroke-width="1"/>
<rect x="315.0" y="190.2" fill="#472A2B" width="10.4" height="10.4" stroke="#472A2B" stroke-width="1"/>
<rect x="325.4" y="190.2" fill="#472A2B" width="10.4" height="10.4" stroke="#472A2B" stroke-width="1"/>
<rect x="346.20000000000005" y="190.2" fill="#472A2B" width="10.4" height="10.4" stroke="#472A2B" stroke-width="1"/>
<rect x="367.0" y="190.2" fill="#472A2B" width="10.4" height="10.4" stroke="#472A2B" stroke-width="1"/>
<rect x="377.4" y="190.2" fill="#472A2B" width="10.4" height="10.4" stroke="#472A2B" stroke-width="1"/>
<rect x="387.8" y="190.2" fill="#472A2B" width="10.4" height="10.4" stroke="#472A2B" stroke-width="1"/>
<rect x="408.6" y="190.2" fill="#472A2B" width="10.4" height="10.4" stroke="#472A2B" stroke-width="1"/>
<rect x="159.0" y="200.6" fill="#472A2B" width="10.4" height="10.4" stroke="#472A2B" stroke-width="1"/>
<rect x="179.8" y="200.6" fill="#472A2B" width="10.4" height="10.4" stroke="#472A2B" stroke-width="1"/>
<rect x="190.2" y="200.6" fill="#472A2B" width="10.4" height="10.4" stroke="#472A2B" stroke-width="1"/>
<rect x="200.6" y="200.6" fill="#472A2B" width="10.4" height="10.4" stroke="#472A2B" stroke-width="1"/>
<rect x="221.4" y="200.6" fill="#472A2B" width="10.4" height="10.4" stroke="#472A2B" stroke-width="1"/>
<rect x="252.60000000000002" y="200.6" fill="#472A2B" width="10.4" height="10.4" stroke="#472A2B" stroke-width="1"/>
<rect x="273.4" y="200.6" fill="#472A2B" width="10.4" height="10.4" stroke="#472A2B" stroke-width="1"/>
<rect x="294.20000000000005" y="200.6" fill="#472A2B" width="10.4" height="10.4" stroke="#472A2B" stroke-width="1"/>
<rect x="304.6" y="200.6" fill="#472A2B" width="10.4" height="10.4" stroke="#472A2B" stroke-width="1"/>
<rect x="325.4" y="200.6" fill="#472A2B" width="10.4" height="10.4" stroke="#472A2B" stroke-width="1"/>
<rect x="346.20000000000005" y="200.6" fill="#472A2B" width="10.4" height="10.4" stroke="#472A2B" stroke-width="1"/>
<rect x="367.0" y="200.6" fill="#472A2B" width="10.4" height="10.4" stroke="#472A2B" stroke-width="1"/>
<rect x="377.4" y="200.6" fill="#472A2B" width="10.4" height="10.4" stroke="#472A2B" stroke-width="1"/>
<rect x="387.8" y="200.6" fill="#472A2B" width="10.4" height="10.4" stroke="#472A2B" stroke-width="1"/>
<rect x="408.6" y="200.6" fill="#472A2B" width="10.4" height="10.4" stroke="#472A2B" stroke-width="1"/>
<rect x="159.0" y="211.0" fill="#472A2B" width="10.4" height="10.4" stroke="#472A2B" stroke-width="1"/>
<rect x="221.4" y="211.0" fill="#472A2B" width="10.4" height="10.4" stroke="#472A2B" stroke-width="1"/>
<rect x="263.0" y="211.0" fill="#472A2B" width="10.4" height="10.4" stroke="#472A2B" stroke-width="1"/>
<rect x="283.8" y="211.0" fill="#472A2B" width="10.4" height="10.4" stroke="#472A2B" stroke-width="1"/>
<rect x="294.20000000000005" y="211.0" fill="#472A2B" width="10.4" height="10.4" stroke="#472A2B" stroke-width="1"/>
<rect x="304.6" y="211.0" fill="#472A2B" width="10.4" height="10.4" stroke="#472A2B" stroke-width="1"/>
<rect x="346.20000000000005" y="211.0" fill="#472A2B" width="10.4" height="10.4" stroke="#472A2B" stroke-width="1"/>
<rect x="408.6" y="211.0" fill="#472A2B" width="10.4" height="10.4" stroke="#472A2B" stroke-width="1"/>
<rect x="159.0" y="221.4" fill="#472A2B" width="10.4" height="10.4" stroke="#472A2B" stroke-width="1"/>
<rect x="169.4" y="221.4" fill="#472A2B" width="10.4" height="10.4" stroke="#472A2B" stroke-width="1"/>
<rect x="179.8" y="221.4" fill="#472A2B" width="10.4" height="10.4" stroke="#472A2B" stroke-width="1"/>
<rect x="190.2" y="221.4" fill="#472A2B" width="10.4" height="10.4" stroke="#472A2B" stroke-width="1"/>
<rect x="200.6" y="221.4" fill="#472A2B" width="10.4" height="10.4" stroke="#472A2B" stroke-width="1"/>
<rect x="211.0" y="221.4" fill="#472A2B" width="10.4" height="10.4" stroke="#472A2B" stroke-width="1"/>
<rect x="221.4" y="221.4" fill="#472A2B" width="10.4" height="10.4" stroke="#472A2B" stroke-width="1"/>
<rect x="242.2" y="221.4" fill="#472A2B" width="10.4" height="10.4" stroke="#472A2B" stroke-width="1"/>
<rect x="263.0" y="221.4" fill="#472A2B" width="10.4" height="10.4" stroke="#472A2B" stroke-width="1"/>
<rect x="283.8" y="221.4" fill="#472A2B" width="10.4" height="10.4" stroke="#472A2B" stroke-width="1"/>
<rect x="304.6" y="221.4" fill="#472A2B" width="10.4" height="10.4" stroke="#472A2B" stroke-width="1"/>
<rect x="325.4" y="221.4" fill="#472A2B" width="10.4" height="10.4" stroke="#472A2B" stroke-width="1"/>
<rect x="346.20000000000005" y="221.4" fill="#472A2B" width="10.4" height="10.4" stroke="#472A2B" stroke-width="1"/>
<rect x="356.6" y="221.4" fill="#472A2B" width="10.4" height="10.4" stroke="#472A2B" stroke-width="1"/>
<rect x="367.0" y="221.4" fill="#472A2B" width="10.4" height="10.4" stroke="#472A2B" stroke-width="1"/>
<rect x="377.4" y="221.4" fill="#472A2B" width="10.4" height="10.4" stroke="#472A2B" stroke-width="1"/>
<rect x="387.8" y="221.4" fill="#472A2B" width="10.4" height="10.4" stroke="#472A2B" stroke-width="1"/>
<rect x="398.20000000000005" y="221.4" fill="#472A2B" width="10.4" height="10.4" stroke="#472A2B" stroke-width="1"/>
<rect x="408.6" y="221.4" fill="#472A2B" width="10.4" height="10.4" stroke="#472A2B" stroke-width="1"/>
<rect x="242.2" y="231.8" fill="#472A2B" width="10.4" height="10.4" stroke="#472A2B" stroke-width="1"/>
<rect x="263.0" y="231.8" fill="#472A2B" width="10.4" height="10.4" stroke="#472A2B" stroke-width="1"/>
<rect x="273.4" y="231.8" fill="#472A2B" width="10.4" height="10.4" stroke="#472A2B" stroke-width="1"/>
<rect x="294.20000000000005" y="231.8" fill="#472A2B" width="10.4" height="10.4" stroke="#472A2B" stroke-width="1"/>
<rect x="315.0" y="231.8" fill="#472A2B" width="10.4" height="10.4" stroke="#472A2B" stroke-width="1"/>
<rect x="159.0" y="242.2" fill="#472A2B" width="10.4" height="10.4" stroke="#472A2B" stroke-width="1"/>
<rect x="169.4" y="242.2" fill="#472A2B" width="10.4" height="10.4" stroke="#472A2B" stroke-width="1"/>
<rect x="190.2" y="242.2" fill="#472A2B" width="10.4" height="10.4" stroke="#472A2B" stroke-width="1"/>
<rect x="200.6" y="242.2" fill="#472A2B" width="10.4" height="10.4" stroke="#472A2B" stroke-width="1"/>
<rect x="221.4" y="242.2" fill="#472A2B" width="10.4" height="10.4" stroke="#472A2B" stroke-width="1"/>
<rect x="252.60000000000002" y="242.2" fill="#472A2B" width="10.4" height="10.4" stroke="#472A2B" stroke-width="1"/>
<rect x="263.0" y="242.2" fill="#472A2B" width="10.4" height="10.4" stroke="#472A2B" stroke-width="1"/>
<rect x="273.4" y="242.2" fill="#472A2B" width="10.4" height="10.4" stroke="#472A2B" stroke-width="1"/>
<rect x="283.8" y="242.2" fill="#472A2B" width="10.4" height="10.4" stroke="#472A2B" stroke-width="1"/>
<rect x="304.6" y="242.2" fill="#472A2B" width="10.4" height="10.4" stroke="#472A2B" stroke-width="1"/>
<rect x="315.0" y="242.2" fill="#472A2B" width="10.4" height="10.4" stroke="#472A2B" stroke-width="1"/>
<rect x="325.4" y="242.2" fill="#472A2B" width="10.4" height="10.4" stroke="#472A2B" stroke-width="1"/>
<rect x="346.20000000000005" y="242.2" fill="#472A2B" width="10.4" height="10.4" stroke="#472A2B" stroke-width="1"/>
<rect x="408.6" y="242.2" fill="#472A2B" width="10.4" height="10.4" stroke="#472A2B" stroke-width="1"/>
<rect x="169.4" y="252.60000000000002" fill="#472A2B" width="10.4" height="10.4" stroke="#472A2B" stroke-width="1"/>
<rect x="190.2" y="252.60000000000002" fill="#472A2B" width="10.4" height="10.4" stroke="#472A2B" stroke-width="1"/>
<rect x="200.6" y="252.60000000000002" fill="#472A2B" width="10.4" height="10.4" stroke="#472A2B" stroke-width="1"/>
<rect x="211.0" y="252.60000000000002" fill="#472A2B" width="10.4" height="10.4" stroke="#472A2B" stroke-width="1"/>
<rect x="242.2" y="252.60000000000002" fill="#472A2B" width="10.4" height="10.4" stroke="#472A2B" stroke-width="1"/>
<rect x="252.60000000000002" y="252.60000000000002" fill="#472A2B" width="10.4" height="10.4" stroke="#472A2B" stroke-width="1"/>
<rect x="283.8" y="252.60000000000002" fill="#472A2B" width="10.4" height="10.4" stroke="#472A2B" stroke-width="1"/>
<rect x="315.0" y="252.60000000000002" fill="#472A2B" width="10.4" height="10.4" stroke="#472A2B" stroke-width="1"/>
<rect x="356.6" y="252.60000000000002" fill="#472A2B" width="10.4" height="10.4" stroke="#472A2B" stroke-width="1"/>
<rect x="367.0" y="252.60000000000002" fill="#472A2B" width="10.4" height="10.4" stroke="#472A2B" stroke-width="1"/>
<rect x="377.4" y="252.60000000000002" fill="#472A2B" width="10.4" height="10.4" stroke="#472A2B" stroke-width="1"/>
<rect x="387.8" y="252.60000000000002" fill="#472A2B" width="10.4" height="10.4" stroke="#472A2B" stroke-width="1"/>
<rect x="398.20000000000005" y="252.60000000000002" fill="#472A2B" width="10.4" height="10.4" stroke="#472A2B" stroke-width="1"/>
<rect x="159.0" y="263.0" fill="#472A2B" width="10.4" height="10.4" stroke="#472A2B" stroke-width="1"/>
<rect x="179.8" y="263.0" fill="#472A2B" width="10.4" height="10.4" stroke="#472A2B" stroke-width="1"/>
<rect x="211.0" y="263.0" fill="#472A2B" width="10.4" height="10.4" stroke="#472A2B" stroke-width="1"/>
<rect x="221.4" y="263.0" fill="#472A2B" width="10.4" height="10.4" stroke="#472A2B" stroke-width="1"/>
<rect x="242.2" y="263.0" fill="#472A2B" width="10.4" height="10.4" stroke="#472A2B" stroke-width="1"/>
<rect x="263.0" y="263.0" fill="#472A2B" width="10.4" height="10.4" stroke="#472A2B" stroke-width="1"/>
<rect x="273.4" y="263.0" fill="#472A2B" width="10.4" height="10.4" stroke="#472A2B" stroke-width="1"/>
<rect x="294.20000000000005" y="263.0" fill="#472A2B" width="10.4" height="10.4" stroke="#472A2B" stroke-width="1"/>
<rect x="304.6" y="263.0" fill="#472A2B" width="10.4" height="10.4" stroke="#472A2B" stroke-width="1"/>
<rect x="315.0" y="263.0" fill="#472A2B" width="10.4" height="10.4" stroke="#472A2B" stroke-width="1"/>
<rect x="335.8" y="263.0" fill="#472A2B" width="10.4" height="10.4" stroke="#472A2B" stroke-width="1"/>
<rect x="377.4" y="263.0" fill="#472A2B" width="10.4" height="10.4" stroke="#472A2B" stroke-width="1"/>
<rect x="408.6" y="263.0" fill="#472A2B" width="10.4" height="10.4" stroke="#472A2B" stroke-width="1"/>
<rect x="169.4" y="273.4" fill="#472A2B" width="10.4" height="10.4" stroke="#472A2B" stroke-width="1"/>
<rect x="179.8" y="273.4" fill="#472A2B" width="10.4" height="10.4" stroke="#472A2B" stroke-width="1"/>
<rect x="200.6" y="273.4" fill="#472A2B" width="10.4" height="10.4" stroke="#472A2B" stroke-width="1"/>
<rect x="211.0" y="273.4" fill="#472A2B" width="10.4" height="10.4" stroke="#472A2B" stroke-width="1"/>
<rect x="231.8" y="273.4" fill="#472A2B" width="10.4" height="10.4" stroke="#472A2B" stroke-width="1"/>
<rect x="242.2" y="273.4" fill="#472A2B" width="10.4" height="10.4" stroke="#472A2B" stroke-width="1"/>
<rect x="252.60000000000002" y="273.4" fill="#472A2B" width="10.4" height="10.4" stroke="#472A2B" stroke-width="1"/>
<rect x="263.0" y="273.4" fill="#472A2B" width="10.4" height="10.4" stroke="#472A2B" stroke-width="1"/>
<rect x="273.4" y="273.4" fill="#472A2B" width="10.4" height="10.4" stroke="#472A2B" stroke-width="1"/>
<rect x="283.8" y="273.4" fill="#472A2B" width="10.4" height="10.4" stroke="#472A2B" stroke-width="1"/>
<rect x="304.6" y="273.4" fill="#472A2B" width="10.4" height="10.4" stroke="#472A2B" stroke-width="1"/>
<rect x="315.0" y="273.4" fill="#472A2B" width="10.4" height="10.4" stroke="#472A2B" stroke-width="1"/>
<rect x="356.6" y="273.4" fill="#472A2B" width="10.4" height="10.4" stroke="#472A2B" stroke-width="1"/>
<rect x="367.0" y="273.4" fill="#472A2B" width="10.4" height="10.4" stroke="#472A2B" stroke-width="1"/>
<rect x="377.4" y="273.4" fill="#472A2B" width="10.4" height="10.4" stroke="#472A2B" stroke-width="1"/>
<rect x="387.8" y="273.4" fill="#472A2B" width="10.4" height="10.4" stroke="#472A2B" stroke-width="1"/>
<rect x="398.20000000000005" y="273.4" fill="#472A2B" width="10.4" height="10.4" stroke="#472A2B" stroke-width="1"/>
<rect x="408.6" y="273.4" fill="#472A2B" width="10.4" height="10.4" stroke="#472A2B" stroke-width="1"/>
<rect x="190.2" y="283.8" fill="#472A2B" width="10.4" height="10.4" stroke="#472A2B" stroke-width="1"/>
<rect x="200.6" y="283.8" fill="#472A2B" width="10.4" height="10.4" stroke="#472A2B" stroke-width="1"/>
<rect x="221.4" y="283.8" fill="#472A2B" width="10.4" height="10.4" stroke="#472A2B" stroke-width="1"/>
<rect x="231.8" y="283.8" fill="#472A2B" width="10.4" height="10.4" stroke="#472A2B" stroke-width="1"/>
<rect x="252.60000000000002" y="283.8" fill="#472A2B" width="10.4" height="10.4" stroke="#472A2B" stroke-width="1"/>
<rect x="273.4" y="283.8" fill="#472A2B" width="10.4" height="10.4" stroke="#472A2B" stroke-width="1"/>
<rect x="304.6" y="283.8" fill="#472A2B" width="10.4" height="10.4" stroke="#472A2B" stroke-width="1"/>
<rect x="325.4" y="283.8" fill="#472A2B" width="10.4" height="10.4" stroke="#472A2B" stroke-width="1"/>
<rect x="346.20000000000005" y="283.8" fill="#472A2B" width="10.4" height="10.4" stroke="#472A2B" stroke-width="1"/>
<rect x="356.6" y="283.8" fill="#472A2B" width="10.4" height="10.4" stroke="#472A2B" stroke-width="1"/>
<rect x="408.6" y="283.8" fill="#472A2B" width="10.4" height="10.4" stroke="#472A2B" stroke-width="1"/>
<rect x="159.0" y="294.20000000000005" fill="#472A2B" width="10.4" height="10.4" stroke="#472A2B" stroke-width="1"/>
<rect x="211.0" y="294.20000000000005" fill="#472A2B" width="10.4" height="10.4" stroke="#472A2B" stroke-width="1"/>
<rect x="231.8" y="294.20000000000005" fill="#472A2B" width="10.4" height="10.4" stroke="#472A2B" stroke-width="1"/>
<rect x="242.2" y="294.20000000000005" fill="#472A2B" width="10.4" height="10.4" stroke="#472A2B" stroke-width="1"/>
<rect x="273.4" y="294.20000000000005" fill="#472A2B" width="10.4" height="10.4" stroke="#472A2B" stroke-width="1"/>
<rect x="283.8" y="294.20000000000005" fill="#472A2B" width="10.4" height="10.4" stroke="#472A2B" stroke-width="1"/>
<rect x="304.6" y="294.20000000000005" fill="#472A2B" width="10.4" height="10.4" stroke="#472A2B" stroke-width="1"/>
<rect x="315.0" y="294.20000000000005" fill="#472A2B" width="10.4" height="10.4" stroke="#472A2B" stroke-width="1"/>
<rect x="356.6" y="294.20000000000005" fill="#472A2B" width="10.4" height="10.4" stroke="#472A2B" stroke-width="1"/>
<rect x="367.0" y="294.20000000000005" fill="#472A2B" width="10.4" height="10.4" stroke="#472A2B" stroke-width="1"/>
<rect x="398.20000000000005" y="294.20000000000005" fill="#472A2B" width="10.4" height="10.4" stroke="#472A2B" stroke-width="1"/>
<rect x="159.0" y="304.6" fill="#472A2B" width="10.4" height="10.4" stroke="#472A2B" stroke-width="1"/>
<rect x="169.4" y="304.6" fill="#472A2B" width="10.4" height="10.4" stroke="#472A2B" stroke-width="1"/>
<rect x="179.8" y="304.6" fill="#472A2B" width="10.4" height="10.4" stroke="#472A2B" stroke-width="1"/>
<rect x="190.2" y="304.6" fill="#472A2B" width="10.4" height="10.4" stroke="#472A2B" stroke-width="1"/>
<rect x="200.6" y="304.6" fill="#472A2B" width="10.4" height="10.4" stroke="#472A2B" stroke-width="1"/>
<rect x="221.4" y="304.6" fill="#472A2B" width="10.4" height="10.4" stroke="#472A2B" stroke-width="1"/>
<rect x="231.8" y="304.6" fill="#472A2B" width="10.4" height="10.4" stroke="#472A2B" stroke-width="1"/>
<rect x="242.2" y="304.6" fill="#472A2B" width="10.4" height="10.4" stroke="#472A2B" stroke-width="1"/>
<rect x="263.0" y="304.6" fill="#472A2B" width="10.4" height="10.4" stroke="#472A2B" stroke-width="1"/>
<rect x="283.8" y="304.6" fill="#472A2B" width="10.4" height="10.4" stroke="#472A2B" stroke-width="1"/>
<rect x="304.6" y="304.6" fill="#472A2B" width="10.4" height="10.4" stroke="#472A2B" stroke-width="1"/>
<rect x="315.0" y="304.6" fill="#472A2B" width="10.4" height="10.4" stroke="#472A2B" stroke-width="1"/>
<rect x="346.20000000000005" y="304.6" fill="#472A2B" width="10.4" height="10.4" stroke="#472A2B" stroke-width="1"/>
<rect x="377.4" y="304.6" fill="#472A2B" width="10.4" height="10.4" stroke="#472A2B" stroke-width="1"/>
<rect x="387.8" y="304.6" fill="#472A2B" width="10.4" height="10.4" stroke="#472A2B" stroke-width="1"/>
<rect x="398.20000000000005" y="304.6" fill="#472A2B" width="10.4" height="10.4" stroke="#472A2B" stroke-width="1"/>
<rect x="408.6" y="304.6" fill="#472A2B" width="10.4" height="10.4" stroke="#472A2B" stroke-width="1"/>
<rect x="159.0" y="315.0" fill="#472A2B" width="10.4" height="10.4" stroke="#472A2B" stroke-width="1"/>
<rect x="179.8" y="315.0" fill="#472A2B" width="10.4" height="10.4" stroke="#472A2B" stroke-width="1"/>
<rect x="242.2" y="315.0" fill="#472A2B" width="10.4" height="10.4" stroke="#472A2B" stroke-width="1"/>
<rect x="252.60000000000002" y="315.0" fill="#472A2B" width="10.4" height="10.4" stroke="#472A2B" stroke-width="1"/>
<rect x="263.0" y="315.0" fill="#472A2B" width="10.4" height="10.4" stroke="#472A2B" stroke-width="1"/>
<rect x="315.0" y="315.0" fill="#472A2B" width="10.4" height="10.4" stroke="#472A2B" stroke-width="1"/>
<rect x="335.8" y="315.0" fill="#472A2B" width="10.4" height="10.4" stroke="#472A2B" stroke-width="1"/>
<rect x="346.20000000000005" y="315.0" fill="#472A2B" width="10.4" height="10.4" stroke="#472A2B" stroke-width="1"/>
<rect x="356.6" y="315.0" fill="#472A2B" width="10.4" height="10.4" stroke="#472A2B" stroke-width="1"/>
<rect x="387.8" y="315.0" fill="#472A2B" width="10.4" height="10.4" stroke="#472A2B" stroke-width="1"/>
<rect x="408.6" y="315.0" fill="#472A2B" width="10.4" height="10.4" stroke="#472A2B" stroke-width="1"/>
<rect x="159.0" y="325.4" fill="#472A2B" width="10.4" height="10.4" stroke="#472A2B" stroke-width="1"/>
<rect x="211.0" y="325.4" fill="#472A2B" width="10.4" height="10.4" stroke="#472A2B" stroke-width="1"/>
<rect x="221.4" y="325.4" fill="#472A2B" width="10.4" height="10.4" stroke="#472A2B" stroke-width="1"/>
<rect x="231.8" y="325.4" fill="#472A2B" width="10.4" height="10.4" stroke="#472A2B" stroke-width="1"/>
<rect x="242.2" y="325.4" fill="#472A2B" width="10.4" height="10.4" stroke="#472A2B" stroke-width="1"/>
<rect x="263.0" y="325.4" fill="#472A2B" width="10.4" height="10.4" stroke="#472A2B" stroke-width="1"/>
<rect x="273.4" y="325.4" fill="#472A2B" width="10.4" height="10.4" stroke="#472A2B" stroke-width="1"/>
<rect x="294.20000000000005" y="325.4" fill="#472A2B" width="10.4" height="10.4" stroke="#472A2B" stroke-width="1"/>
<rect x="304.6" y="325.4" fill="#472A2B" width="10.4" height="10.4" stroke="#472A2B" stroke-width="1"/>
<rect x="325.4" y="325.4" fill="#472A2B" width="10.4" height="10.4" stroke="#472A2B" stroke-width="1"/>
<rect x="335.8" y="325.4" fill="#472A2B" width="10.4" height="10.4" stroke="#472A2B" stroke-width="1"/>
<rect x="346.20000000000005" y="325.4" fill="#472A2B" width="10.4" height="10.4" stroke="#472A2B" stroke-width="1"/>
<rect x="356.6" y="325.4" fill="#472A2B" width="10.4" height="10.4" stroke="#472A2B" stroke-width="1"/>
<rect x="367.0" y="325.4" fill="#472A2B" width="10.4" height="10.4" stroke="#472A2B" stroke-width="1"/>
<rect x="387.8" y="325.4" fill="#472A2B" width="10.4" height="10.4" stroke="#472A2B" stroke-width="1"/>
<rect x="398.20000000000005" y="325.4" fill="#472A2B" width="10.4" height="10.4" stroke="#472A2B" stroke-width="1"/>
<rect x="242.2" y="335.8" fill="#472A2B" width="10.4" height="10.4" stroke="#472A2B" stroke-width="1"/>
<rect x="283.8" y="335.8" fill="#472A2B" width="10.4" height="10.4" stroke="#472A2B" stroke-width="1"/>
<rect x="304.6" y="335.8" fill="#472A2B" width="10.4" height="10.4" stroke="#472A2B" stroke-width="1"/>
<rect x="325.4" y="335.8" fill="#472A2B" width="10.4" height="10.4" stroke="#472A2B" stroke-width="1"/>
<rect x="367.0" y="335.8" fill="#472A2B" width="10.4" height="10.4" stroke="#472A2B" stroke-width="1"/>
<rect x="398.20000000000005" y="335.8" fill="#472A2B" width="10.4" height="10.4" stroke="#472A2B" stroke-width="1"/>
<rect x="159.0" y="346.20000000000005" fill="#472A2B" width="10.4" height="10.4" stroke="#472A2B" stroke-width="1"/>
<rect x="169.4" y="346.20000000000005" fill="#472A2B" width="10.4" height="10.4" stroke="#472A2B" stroke-width="1"/>
<rect x="179.8" y="346.20000000000005" fill="#472A2B" width="10.4" height="10.4" stroke="#472A2B" stroke-width="1"/>
<rect x="190.2" y="346.20000000000005" fill="#472A2B" width="10.4" height="10.4" stroke="#472A2B" stroke-width="1"/>
<rect x="200.6" y="346.20000000000005" fill="#472A2B" width="10.4" height="10.4" stroke="#472A2B" stroke-width="1"/>
<rect x="211.0" y="346.20000000000005" fill="#472A2B" width="10.4" height="10.4" stroke="#472A2B" stroke-width="1"/>
<rect x="221.4" y="346.20000000000005" fill="#472A2B" width="10.4" height="10.4" stroke="#472A2B" stroke-width="1"/>
<rect x="252.60000000000002" y="346.20000000000005" fill="#472A2B" width="10.4" height="10.4" stroke="#472A2B" stroke-width="1"/>
<rect x="263.0" y="346.20000000000005" fill="#472A2B" width="10.4" height="10.4" stroke="#472A2B" stroke-width="1"/>
<rect x="273.4" y="346.20000000000005" fill="#472A2B" width="10.4" height="10.4" stroke="#472A2B" stroke-width="1"/>
<rect x="283.8" y="346.20000000000005" fill="#472A2B" width="10.4" height="10.4" stroke="#472A2B" stroke-width="1"/>
<rect x="294.20000000000005" y="346.20000000000005" fill="#472A2B" width="10.4" height="10.4" stroke="#472A2B" stroke-width="1"/>
<rect x="304.6" y="346.20000000000005" fill="#472A2B" width="10.4" height="10.4" stroke="#472A2B" stroke-width="1"/>
<rect x="325.4" y="346.20000000000005" fill="#472A2B" width="10.4" height="10.4" stroke="#472A2B" stroke-width="1"/>
<rect x="346.20000000000005" y="346.20000000000005" fill="#472A2B" width="10.4" height="10.4" stroke="#472A2B" stroke-width="1"/>
<rect x="367.0" y="346.20000000000005" fill="#472A2B" width="10.4" height="10.4" stroke="#472A2B" stroke-width="1"/>
<rect x="377.4" y="346.20000000000005" fill="#472A2B" width="10.4" height="10.4" stroke="#472A2B" stroke-width="1"/>
<rect x="408.6" y="346.20000000000005" fill="#472A2B" width="10.4" height="10.4" stroke="#472A2B" stroke-width="1"/>
<rect x="159.0" y="356.6" fill="#472A2B" width="10.4" height="10.4" stroke="#472A2B" stroke-width="1"/>
<rect x="221.4" y="356.6" fill="#472A2B" width="10.4" height="10.4" stroke="#472A2B" stroke-width="1"/>
<rect x="283.8" y="356.6" fill="#472A2B" width="10.4" height="10.4" stroke="#472A2B" stroke-width="1"/>
<rect x="294.20000000000005" y="356.6" fill="#472A2B" width="10.4" height="10.4" stroke="#472A2B" stroke-width="1"/>
<rect x="315.0" y="356.6" fill="#472A2B" width="10.4" height="10.4" stroke="#472A2B" stroke-width="1"/>
<rect x="325.4" y="356.6" fill="#472A2B" width="10.4" height="10.4" stroke="#472A2B" stroke-width="1"/>
<rect x="367.0" y="356.6" fill="#472A2B" width="10.4" height="10.4" stroke="#472A2B" stroke-width="1"/>
<rect x="398.20000000000005" y="356.6" fill="#472A2B" width="10.4" height="10.4" stroke="#472A2B" stroke-width="1"/>
<rect x="159.0" y="367.0" fill="#472A2B" width="10.4" height="10.4" stroke="#472A2B" stroke-width="1"/>
<rect x="179.8" y="367.0" fill="#472A2B" width="10.4" height="10.4" stroke="#472A2B" stroke-width="1"/>
<rect x="190.2" y="367.0" fill="#472A2B" width="10.4" height="10.4" stroke="#472A2B" stroke-width="1"/>
<rect x="200.6" y="367.0" fill="#472A2B" width="10.4" height="10.4" stroke="#472A2B" stroke-width="1"/>
<rect x="221.4" y="367.0" fill="#472A2B" width="10.4" height="10.4" stroke="#472A2B" stroke-width="1"/>
<rect x="242.2" y="367.0" fill="#472A2B" width="10.4" height="10.4" stroke="#472A2B" stroke-width="1"/>
<rect x="252.60000000000002" y="367.0" fill="#472A2B" width="10.4" height="10.4" stroke="#472A2B" stroke-width="1"/>
<rect x="315.0" y="367.0" fill="#472A2B" width="10.4" height="10.4" stroke="#472A2B" stroke-width="1"/>
<rect x="325.4" y="367.0" fill="#472A2B" width="10.4" height="10.4" stroke="#472A2B" stroke-width="1"/>
<rect x="335.8" y="367.0" fill="#472A2B" width="10.4" height="10.4" stroke="#472A2B" stroke-width="1"/>
<rect x="346.20000000000005" y="367.0" fill="#472A2B" width="10.4" height="10.4" stroke="#472A2B" stroke-width="1"/>
<rect x="356.6" y="367.0" fill="#472A2B" width="10.4" height="10.4" stroke="#472A2B" stroke-width="1"/>
<rect x="367.0" y="367.0" fill="#472A2B" width="10.4" height="10.4" stroke="#472A2B" stroke-width="1"/>
<rect x="377.4" y="367.0" fill="#472A2B" width="10.4" height="10.4" stroke="#472A2B" stroke-width="1"/>
<rect x="159.0" y="377.4" fill="#472A2B" width="10.4" height="10.4" stroke="#472A2B" stroke-width="1"/>
<rect x="179.8" y="377.4" fill="#472A2B" width="10.4" height="10.4" stroke="#472A2B" stroke-width="1"/>
<rect x="190.2" y="377.4" fill="#472A2B" width="10.4" height="10.4" stroke="#472A2B" stroke-width="1"/>
<rect x="200.6" y="377.4" fill="#472A2B" width="10.4" height="10.4" stroke="#472A2B" stroke-width="1"/>
<rect x="221.4" y="377.4" fill="#472A2B" width="10.4" height="10.4" stroke="#472A2B" stroke-width="1"/>
<rect x="242.2" y="377.4" fill="#472A2B" width="10.4" height="10.4" stroke="#472A2B" stroke-width="1"/>
<rect x="273.4" y="377.4" fill="#472A2B" width="10.4" height="10.4" stroke="#472A2B" stroke-width="1"/>
<rect x="283.8" y="377.4" fill="#472A2B" width="10.4" height="10.4" stroke="#472A2B" stroke-width="1"/>
<rect x="315.0" y="377.4" fill="#472A2B" width="10.4" height="10.4" stroke="#472A2B" stroke-width="1"/>
<rect x="325.4" y="377.4" fill="#472A2B" width="10.4" height="10.4" stroke="#472A2B" stroke-width="1"/>
<rect x="335.8" y="377.4" fill="#472A2B" width="10.4" height="10.4" stroke="#472A2B" stroke-width="1"/>
<rect x="346.20000000000005" y="377.4" fill="#472A2B" width="10.4" height="10.4" stroke="#472A2B" stroke-width="1"/>
<rect x="377.4" y="377.4" fill="#472A2B" width="10.4" height="10.4" stroke="#472A2B" stroke-width="1"/>
<rect x="398.20000000000005" y="377.4" fill="#472A2B" width="10.4" height="10.4" stroke="#472A2B" stroke-width="1"/>
<rect x="408.6" y="377.4" fill="#472A2B" width="10.4" height="10.4" stroke="#472A2B" stroke-width="1"/>
<rect x="159.0" y="387.8" fill="#472A2B" width="10.4" height="10.4" stroke="#472A2B" stroke-width="1"/>
<rect x="179.8" y="387.8" fill="#472A2B" width="10.4" height="10.4" stroke="#472A2B" stroke-width="1"/>
<rect x="190.2" y="387.8" fill="#472A2B" width="10.4" height="10.4" stroke="#472A2B" stroke-width="1"/>
<rect x="200.6" y="387.8" fill="#472A2B" width="10.4" height="10.4" stroke="#472A2B" stroke-width="1"/>
<rect x="221.4" y="387.8" fill="#472A2B" width="10.4" height="10.4" stroke="#472A2B" stroke-width="1"/>
<rect x="252.60000000000002" y="387.8" fill="#472A2B" width="10.4" height="10.4" stroke="#472A2B" stroke-width="1"/>
<rect x="263.0" y="387.8" fill="#472A2B" width="10.4" height="10.4" stroke="#472A2B" stroke-width="1"/>
<rect x="273.4" y="387.8" fill="#472A2B" width="10.4" height="10.4" stroke="#472A2B" stroke-width="1"/>
<rect x="315.0" y="387.8" fill="#472A2B" width="10.4" height="10.4" stroke="#472A2B" stroke-width="1"/>
<rect x="335.8" y="387.8" fill="#472A2B" width="10.4" height="10.4" stroke="#472A2B" stroke-width="1"/>
<rect x="356.6" y="387.8" fill="#472A2B" width="10.4" height="10.4" stroke="#472A2B" stroke-width="1"/>
<rect x="367.0" y="387.8" fill="#472A2B" width="10.4" height="10.4" stroke="#472A2B" stroke-width="1"/>
<rect x="387.8" y="387.8" fill="#472A2B" width="10.4" height="10.4" stroke="#472A2B" stroke-width="1"/>
<rect x="398.20000000000005" y="387.8" fill="#472A2B" width="10.4" height="10.4" stroke="#472A2B" stroke-width="1"/>
<rect x="408.6" y="387.8" fill="#472A2B" width="10.4" height="10.4" stroke="#472A2B" stroke-width="1"/>
<rect x="159.0" y="398.20000000000005" fill="#472A2B" width="10.4" height="10.4" stroke="#472A2B" stroke-width="1"/>
<rect x="221.4" y="398.20000000000005" fill="#472A2B" width="10.4" height="10.4" stroke="#472A2B" stroke-width="1"/>
<rect x="242.2" y="398.20000000000005" fill="#472A2B" width="10.4" height="10.4" stroke="#472A2B" stroke-width="1"/>
<rect x="252.60000000000002" y="398.20000000000005" fill="#472A2B" width="10.4" height="10.4" stroke="#472A2B" stroke-width="1"/>
<rect x="273.4" y="398.20000000000005" fill="#472A2B" width="10.4" height="10.4" stroke="#472A2B" stroke-width="1"/>
<rect x="283.8" y="398.20000000000005" fill="#472A2B" width="10.4" height="10.4" stroke="#472A2B" stroke-width="1"/>
<rect x="335.8" y="398.20000000000005" fill="#472A2B" width="10.4" height="10.4" stroke="#472A2B" stroke-width="1"/>
<rect x="356.6" y="398.20000000000005" fill="#472A2B" width="10.4" height="10.4" stroke="#472A2B" stroke-width="1"/>
<rect x="367.0" y="398.20000000000005" fill="#472A2B" width="10.4" height="10.4" stroke="#472A2B" stroke-width="1"/>
<rect x="387.8" y="398.20000000000005" fill="#472A2B" width="10.4" height="10.4" stroke="#472A2B" stroke-width="1"/>
<rect x="398.20000000000005" y="398.20000000000005" fill="#472A2B" width="10.4" height="10.4" stroke="#472A2B" stroke-width="1"/>
<rect x="408.6" y="398.20000000000005" fill="#472A2B" width="10.4" height="10.4" stroke="#472A2B" stroke-width="1"/>
<rect x="159.0" y="408.6" fill="#472A2B" width="10.4" height="10.4" stroke="#472A2B" stroke-width="1"/>
<rect x="169.4" y="408.6" fill="#472A2B" width="10.4" height="10.4" stroke="#472A2B" stroke-width="1"/>
<rect x="179.8" y="408.6" fill="#472A2B" width="10.4" height="10.4" stroke="#472A2B" stroke-width="1"/>
<rect x="190.2" y="408.6" fill="#472A2B" width="10.4" height="10.4" stroke="#472A2B" stroke-width="1"/>
<rect x="200.6" y="408.6" fill="#472A2B" width="10.4" height="10.4" stroke="#472A2B" stroke-width="1"/>
<rect x="211.0" y="408.6" fill="#472A2B" width="10.4" height="10.4" stroke="#472A2B" stroke-width="1"/>
<rect x="221.4" y="408.6" fill="#472A2B" width="10.4" height="10.4" stroke="#472A2B" stroke-width="1"/>
<rect x="242.2" y="408.6" fill="#472A2B" width="10.4" height="10.4" stroke="#472A2B" stroke-width="1"/>
<rect x="263.0" y="408.6" fill="#472A2B" width="10.4" height="10.4" stroke="#472A2B" stroke-width="1"/>
<rect x="273.4" y="408.6" fill="#472A2B" width="10.4" height="10.4" stroke="#472A2B" stroke-width="1"/>
<rect x="304.6" y="408.6" fill="#472A2B" width="10.4" height="10.4" stroke="#472A2B" stroke-width="1"/>
<rect x="325.4" y="408.6" fill="#472A2B" width="10.4" height="10.4" stroke="#472A2B" stroke-width="1"/>
<rect x="377.4" y="408.6" fill="#472A2B" width="10.4" height="10.4" stroke="#472A2B" stroke-width="1"/>
<rect x="408.6" y="408.6" fill="#472A2B" width="10.4" height="10.4" stroke="#472A2B" stroke-width="1"/>

</svg>